<svg width="276" height="223" viewBox="0 0 276 223" fill="none" xmlns="http://www.w3.org/2000/svg">
<g clip-path="url(#clip0_54_4315)">
<path d="M36.3689 175.282L24.2163 203.986C22.107 208.969 23.073 214.948 27.1337 219.014C29.8047 221.688 33.3037 223.02 36.8026 223.02C40.3016 223.02 43.8005 221.688 46.4715 219.014L58.023 207.449L101.627 163.787C103.647 161.764 102.218 158.32 99.3599 158.32H74.5814C74.4336 158.32 74.2857 158.3 74.128 158.3C48.0288 158.3 26.8577 136.8 27.3505 110.563C27.8335 84.9176 49.2904 64.6305 74.9067 64.6305H127.785C128.633 64.6305 129.451 64.295 130.052 63.6931L151.006 42.7153C153.027 40.6925 151.598 37.2489 148.739 37.2489H75.1531C34.0133 37.2489 -0.365112 70.9455 -0.000427246 112.131C0.236115 138.98 14.7839 162.454 36.3591 175.302L36.3689 175.282ZM199.992 158.31C225.608 158.31 247.065 138.023 247.548 112.378C248.031 86.7332 226.869 64.6404 200.77 64.6404C200.613 64.6404 200.445 64.6206 200.287 64.6206H175.529C172.68 64.6206 171.251 61.1671 173.262 59.1542L219.103 13.2616H219.093L228.121 4.20342C233.276 -0.957158 241.664 -1.50972 247.124 3.3351C251.707 7.39054 252.88 13.7155 250.662 18.9451L238.51 47.6391C260.105 60.4764 274.662 83.9506 274.909 110.799C275.273 151.985 240.895 185.692 199.755 185.692H126.159C123.31 185.692 121.881 182.238 123.892 180.225L144.846 159.248C145.447 158.646 146.266 158.31 147.113 158.31H200.002H199.992ZM186.617 87.1772C199.696 87.1772 210.301 97.7943 210.301 110.888C210.301 123.982 199.696 134.599 186.617 134.599C173.538 134.599 162.932 123.982 162.932 110.888C162.932 97.7943 173.538 87.1772 186.617 87.1772ZM89.829 87.1673C102.908 87.1673 113.513 97.7845 113.513 110.878C113.513 123.972 102.908 134.589 89.829 134.589C76.7498 134.589 66.1445 123.972 66.1445 110.878C66.1445 97.7845 76.7498 87.1673 89.829 87.1673Z" fill="url(#paint0_linear_54_4315)"/>
</g>
<defs>
<linearGradient id="paint0_linear_54_4315" x1="-0.0002459" y1="-2.32486e-05" x2="304.637" y2="162.153" gradientUnits="userSpaceOnUse">
<stop stop-color="#0084FF"/>
<stop offset="1" stop-color="#1A56DB"/>
</linearGradient>
<clipPath id="clip0_54_4315">
<rect width="1060" height="223" fill="white"/>
</clipPath>
</defs>
</svg>